STARTFONT 2.1
FONT -sun-helmetcondensed-bold-r-semicondensed--24-240-75-75-p-113-adobe-fontspecific
SIZE 24 75 75
FONTBOUNDINGBOX 26 28 -4 -5

STARTPROPERTIES 28
FOUNDRY "sun"
FAMILY_NAME "helmetcondensed"
WEIGHT_NAME "bold"
SLANT "r"
SETWIDTH_NAME "semicondensed"
ADD_STYLE_NAME ""
PIXEL_SIZE 25
POINT_SIZE 240
RESOLUTION_X 75
RESOLUTION_Y 75
SPACING "p"
AVERAGE_WIDTH 113
CHARSET_REGISTRY "adobe"
CHARSET_ENCODING "fontspecific"
COPYRIGHT "© 1999 Sun Microsystems, Inc."
RAW_PIXELSIZE 1000
RAW_POINTSIZE 964
RAW_ASCENT 900
RAW_DESCENT 196
RAW_AVERAGE_WIDTH 4548
FACE_NAME "HelmetCondensedBoldnsedB5"
_XMBDFED_INFO "Edited with xmbdfed 2.4."
WEIGHT 10
X_HEIGHT -1
QUAD_WIDTH 13
DEFAULT_CHAR 4
FONT_DESCENT 5
FONT_ASCENT 23
ENDPROPERTIES

CHARS 210

STARTCHAR char32
ENCODING 32
SWIDTH 21 0
DWIDTH 6 0
BBX 0 0 0 0
BITMAP
ENDCHAR

STARTCHAR char33
ENCODING 33
SWIDTH 21 0
DWIDTH 6 0
BBX 3 18 2 0
BITMAP
60
60
60
60
60
60
60
60
60
60
60
60
60
20
00
00
E0
E0
ENDCHAR

STARTCHAR char34
ENCODING 34
SWIDTH 28 0
DWIDTH 8 0
BBX 6 7 1 11
BITMAP
C0
CC
CC
44
44
88
88
ENDCHAR

STARTCHAR char35
ENCODING 35
SWIDTH 10 0
DWIDTH 13 0
BBX 12 18 0 0
BITMAP
0C60
0C60
0C60
0C40
0840
7FF0
1FF0
18C0
18C0
18C0
1880
FFF0
FFF0
3180
3180
3180
3180
3100
ENDCHAR

STARTCHAR char36
ENCODING 36
SWIDTH 6 0
DWIDTH 12 0
BBX 10 21 0 -2
BITMAP
0C00
1E00
7F00
6580
EC80
CCC0
CC00
6C00
7C00
3E00
0F80
0D80
0CC0
CCC0
CCC0
CCC0
69C0
7F80
3F00
0C00
0C00
ENDCHAR

STARTCHAR char37
ENCODING 37
SWIDTH 31 0
DWIDTH 19 0
BBX 18 18 0 0
BITMAP
380400
7C0800
4C1800
C61000
C63000
C62000
C66700
C64F80
C6C980
CE98C0
7D98C0
3B18C0
0218C0
0618C0
0418C0
0C19C0
080F80
080F00
ENDCHAR

STARTCHAR char38
ENCODING 38
SWIDTH 13 0
DWIDTH 14 0
BBX 13 18 0 0
BITMAP
0E00
1F00
3180
3180
3180
3180
1B00
1E00
1C00
3600
6730
C330
C1B0
C1E0
E0E0
60E0
3FB0
1E38
ENDCHAR

STARTCHAR char39
ENCODING 39
SWIDTH 14 0
DWIDTH 4 0
BBX 2 6 1 12
BITMAP
40
40
C0
C0
C0
C0
ENDCHAR

STARTCHAR char40
ENCODING 40
SWIDTH 25 0
DWIDTH 7 0
BBX 4 22 2 -4
BITMAP
30
20
20
60
40
40
C0
C0
C0
C0
C0
C0
C0
C0
C0
C0
40
60
60
20
30
10
ENDCHAR

STARTCHAR char41
ENCODING 41
SWIDTH 25 0
DWIDTH 7 0
BBX 5 22 0 -4
BITMAP
C0
40
60
30
30
30
18
18
18
18
18
18
18
18
30
30
30
20
60
40
C0
80
ENDCHAR

STARTCHAR char42
ENCODING 42
SWIDTH 28 0
DWIDTH 8 0
BBX 7 7 0 11
BITMAP
10
10
92
7E
18
34
64
ENDCHAR

STARTCHAR char43
ENCODING 43
SWIDTH 10 0
DWIDTH 13 0
BBX 11 11 0 2
BITMAP
0600
0600
0600
0600
0600
FFE0
FFE0
0600
0600
0600
0600
ENDCHAR

STARTCHAR char44
ENCODING 44
SWIDTH 17 0
DWIDTH 5 0
BBX 2 6 1 -4
BITMAP
C0
C0
40
40
80
80
ENDCHAR

STARTCHAR char45
ENCODING 45
SWIDTH 28 0
DWIDTH 8 0
BBX 6 2 0 6
BITMAP
FC
FC
ENDCHAR

STARTCHAR char46
ENCODING 46
SWIDTH 17 0
DWIDTH 5 0
BBX 2 2 1 0
BITMAP
C0
C0
ENDCHAR

STARTCHAR char47
ENCODING 47
SWIDTH 25 0
DWIDTH 7 0
BBX 7 18 0 0
BITMAP
06
04
0C
0C
08
08
18
18
10
30
30
30
20
60
60
40
40
C0
ENDCHAR

STARTCHAR char48
ENCODING 48
SWIDTH 6 0
DWIDTH 12 0
BBX 10 18 0 0
BITMAP
1E00
3F00
7180
6180
E0C0
C0C0
C0C0
C0C0
C0C0
C0C0
C0C0
C0C0
C0C0
E0C0
6080
7180
7F80
1E00
ENDCHAR

STARTCHAR char49
ENCODING 49
SWIDTH 6 0
DWIDTH 12 0
BBX 5 18 2 0
BITMAP
18
18
18
F8
F8
18
18
18
18
18
18
18
18
18
18
18
18
18
ENDCHAR

STARTCHAR char50
ENCODING 50
SWIDTH 6 0
DWIDTH 12 0
BBX 9 18 1 0
BITMAP
3E00
7F00
E300
C180
C180
C180
0180
0380
0300
0600
0C00
1800
7000
6000
C000
C000
FF80
FF80
ENDCHAR

STARTCHAR char51
ENCODING 51
SWIDTH 6 0
DWIDTH 12 0
BBX 10 18 0 0
BITMAP
1F00
3F80
61C0
60C0
E0C0
C0C0
0080
0180
0E00
0F80
01C0
00C0
00C0
C0C0
C0C0
E1C0
7F80
1F00
ENDCHAR

STARTCHAR char52
ENCODING 52
SWIDTH 6 0
DWIDTH 12 0
BBX 10 18 0 0
BITMAP
0380
0380
0780
0780
0D80
0D80
1980
3980
3180
6180
6180
C180
FFC0
FFC0
0380
0380
0380
0380
ENDCHAR

STARTCHAR char53
ENCODING 53
SWIDTH 6 0
DWIDTH 12 0
BBX 10 17 0 0
BITMAP
3F80
3F80
2000
2000
6000
6E00
7F00
7180
60C0
00C0
00C0
00C0
40C0
60C0
6180
7F80
1F00
ENDCHAR

STARTCHAR char54
ENCODING 54
SWIDTH 6 0
DWIDTH 12 0
BBX 9 18 1 0
BITMAP
1E00
3F00
6300
4100
4180
C000
CC00
DE00
E300
C180
C180
C180
C180
C180
C180
4300
7F00
3E00
ENDCHAR

STARTCHAR char55
ENCODING 55
SWIDTH 6 0
DWIDTH 12 0
BBX 10 17 0 0
BITMAP
FFC0
FFC0
01C0
0180
0380
0300
0600
0600
0C00
0C00
0C00
1800
1800
1800
1800
3000
3000
ENDCHAR

STARTCHAR char56
ENCODING 56
SWIDTH 6 0
DWIDTH 12 0
BBX 10 18 0 0
BITMAP
1F00
3F80
71C0
60C0
60C0
60C0
6180
3380
1F00
3F80
6180
60C0
E0C0
C0C0
60C0
61C0
3F80
1F00
ENDCHAR

STARTCHAR char57
ENCODING 57
SWIDTH 6 0
DWIDTH 12 0
BBX 10 18 0 0
BITMAP
1E00
3F00
7180
6080
C0C0
C0C0
C0C0
C0C0
E0C0
61C0
7FC0
1EC0
00C0
00C0
E180
6180
7F00
3E00
ENDCHAR

STARTCHAR char58
ENCODING 58
SWIDTH 21 0
DWIDTH 6 0
BBX 2 13 2 0
BITMAP
C0
C0
00
00
00
00
00
00
00
00
00
C0
C0
ENDCHAR

STARTCHAR char59
ENCODING 59
SWIDTH 21 0
DWIDTH 6 0
BBX 2 17 2 -4
BITMAP
C0
C0
00
00
00
00
00
00
00
00
00
C0
C0
40
40
80
80
ENDCHAR

STARTCHAR char60
ENCODING 60
SWIDTH 17 0
DWIDTH 15 0
BBX 13 13 0 0
BITMAP
0008
0038
00F0
03C0
0E00
7800
E000
7000
1C00
0780
01E0
0078
0008
ENDCHAR

STARTCHAR char61
ENCODING 61
SWIDTH 10 0
DWIDTH 13 0
BBX 13 7 -1 4
BITMAP
FFF8
FFF8
0000
0000
0000
FFF8
FFF8
ENDCHAR

STARTCHAR char62
ENCODING 62
SWIDTH 17 0
DWIDTH 15 0
BBX 12 13 1 0
BITMAP
8000
C000
7800
1E00
0780
00E0
0030
00F0
03C0
0F00
3C00
E000
8000
ENDCHAR

STARTCHAR char63
ENCODING 63
SWIDTH 3 0
DWIDTH 11 0
BBX 9 18 1 0
BITMAP
3E00
7F00
6380
C180
C180
C180
0180
0300
0700
0E00
1C00
1C00
1800
1800
0000
0000
1C00
1C00
ENDCHAR

STARTCHAR char64
ENCODING 64
SWIDTH 24 0
DWIDTH 27 0
BBX 18 20 4 -1
BITMAP
01F000
07F800
1C0E00
300700
600180
63ED80
C7FCC0
CE1CC0
CC18C0
DC18C0
D818C0
D83180
D83100
DC7300
4FFE00
679980
300380
1C0F00
07FC00
01F000
ENDCHAR

STARTCHAR char65
ENCODING 65
SWIDTH 10 0
DWIDTH 13 0
BBX 13 18 -1 0
BITMAP
0700
0780
0780
0580
0CC0
0CC0
0CC0
18C0
1860
1860
3860
3FF0
3FF0
3030
7030
6038
6018
E018
ENDCHAR

STARTCHAR char66
ENCODING 66
SWIDTH 10 0
DWIDTH 13 0
BBX 10 18 1 0
BITMAP
FF00
FF80
C1C0
C1C0
C0C0
C0C0
C1C0
C180
FF00
FF80
C1C0
C0C0
C0C0
C0C0
C0C0
C1C0
FF80
FF00
ENDCHAR

STARTCHAR char67
ENCODING 67
SWIDTH 10 0
DWIDTH 13 0
BBX 11 18 0 0
BITMAP
0F80
3FC0
70E0
6060
6060
E060
C000
C000
C000
C000
C000
C000
E060
E060
6060
70E0
3FC0
1F80
ENDCHAR

STARTCHAR char68
ENCODING 68
SWIDTH 10 0
DWIDTH 13 0
BBX 11 18 1 0
BITMAP
FE00
FF80
C1C0
C0C0
C0E0
C060
C060
C060
C060
C060
C060
C060
C0E0
C0C0
C0C0
C1C0
FF80
FE00
ENDCHAR

STARTCHAR char69
ENCODING 69
SWIDTH 6 0
DWIDTH 12 0
BBX 10 18 1 0
BITMAP
FF80
FF80
C000
C000
C000
C000
C000
C000
FF80
FF80
C000
C000
C000
C000
C000
C000
FFC0
FFC0
ENDCHAR

STARTCHAR char70
ENCODING 70
SWIDTH 3 0
DWIDTH 11 0
BBX 9 18 1 0
BITMAP
FF80
FF80
C000
C000
C000
C000
C000
C000
FF80
FF80
C000
C000
C000
C000
C000
C000
C000
C000
ENDCHAR

STARTCHAR char71
ENCODING 71
SWIDTH 10 0
DWIDTH 13 0
BBX 11 18 0 0
BITMAP
1F00
3FC0
70C0
6060
E060
E060
C000
C000
C000
C3E0
C3E0
C060
C060
E060
6060
70E0
3FE0
1F60
ENDCHAR

STARTCHAR char72
ENCODING 72
SWIDTH 10 0
DWIDTH 13 0
BBX 10 18 1 0
BITMAP
C0C0
C0C0
C0C0
C0C0
C0C0
C0C0
C0C0
C0C0
FFC0
FFC0
C0C0
C0C0
C0C0
C0C0
C0C0
C0C0
C0C0
C0C0
ENDCHAR

STARTCHAR char73
ENCODING 73
SWIDTH 17 0
DWIDTH 5 0
BBX 2 18 1 0
BITMAP
C0
C0
C0
C0
C0
C0
C0
C0
C0
C0
C0
C0
C0
C0
C0
C0
C0
C0
ENDCHAR

STARTCHAR char74
ENCODING 74
SWIDTH 35 0
DWIDTH 10 0
BBX 9 18 -1 0
BITMAP
0180
0180
0180
0180
0180
0180
0180
0180
0180
0180
0180
0180
C180
C180
C180
E380
7F00
3E00
ENDCHAR

STARTCHAR char75
ENCODING 75
SWIDTH 6 0
DWIDTH 12 0
BBX 11 18 1 0
BITMAP
C0E0
C1C0
C180
C380
C700
CE00
CC00
D800
FC00
FC00
E600
C600
C300
C380
C180
C1C0
C0C0
C0E0
ENDCHAR

STARTCHAR char76
ENCODING 76
SWIDTH 3 0
DWIDTH 11 0
BBX 9 18 1 0
BITMAP
C000
C000
C000
C000
C000
C000
C000
C000
C000
C000
C000
C000
C000
C000
C000
C000
FF80
FF80
ENDCHAR

STARTCHAR char77
ENCODING 77
SWIDTH 24 0
DWIDTH 17 0
BBX 14 18 1 0
BITMAP
E01C
E03C
F03C
F03C
F07C
D06C
D86C
D86C
D8CC
C8CC
CCCC
CCCC
CD8C
C58C
C78C
C70C
C70C
C30C
ENDCHAR

STARTCHAR char78
ENCODING 78
SWIDTH 10 0
DWIDTH 13 0
BBX 10 18 1 0
BITMAP
E0C0
E0C0
E0C0
F0C0
F0C0
D0C0
D8C0
C8C0
CCC0
CCC0
C4C0
C6C0
C6C0
C2C0
C3C0
C3C0
C1C0
C1C0
ENDCHAR

STARTCHAR char79
ENCODING 79
SWIDTH 10 0
DWIDTH 13 0
BBX 11 18 0 0
BITMAP
1F00
3F80
70C0
6040
E060
C060
C060
C060
C060
C060
C060
C060
C060
E060
6040
70C0
3F80
1F00
ENDCHAR

STARTCHAR char80
ENCODING 80
SWIDTH 3 0
DWIDTH 11 0
BBX 10 18 1 0
BITMAP
FE00
FF80
C380
C1C0
C0C0
C0C0
C0C0
C1C0
C380
FF00
F000
C000
C000
C000
C000
C000
C000
C000
ENDCHAR

STARTCHAR char81
ENCODING 81
SWIDTH 10 0
DWIDTH 13 0
BBX 12 19 0 -1
BITMAP
1F00
3F80
70C0
6040
E060
C060
C060
C060
C060
C060
C060
C060
C060
E160
63C0
71C0
3FE0
1F30
0010
ENDCHAR

STARTCHAR char82
ENCODING 82
SWIDTH 6 0
DWIDTH 12 0
BBX 10 18 1 0
BITMAP
FF00
FF80
C1C0
C0C0
C0C0
C0C0
C0C0
C380
FF00
FF00
C380
C1C0
C1C0
C1C0
C0C0
C0C0
C0C0
C0C0
ENDCHAR

STARTCHAR char83
ENCODING 83
SWIDTH 6 0
DWIDTH 12 0
BBX 11 18 0 0
BITMAP
1F00
7F80
61C0
C0C0
C0C0
C000
E000
7800
3E00
0F80
01C0
00C0
C0E0
C0E0
C0E0
E0C0
7F80
1F00
ENDCHAR

STARTCHAR char84
ENCODING 84
SWIDTH 3 0
DWIDTH 11 0
BBX 11 18 0 0
BITMAP
FFE0
FFE0
0C00
0C00
0C00
0C00
0C00
0C00
0C00
0C00
0C00
0C00
0C00
0C00
0C00
0C00
0C00
0C00
ENDCHAR

STARTCHAR char85
ENCODING 85
SWIDTH 10 0
DWIDTH 13 0
BBX 10 18 1 0
BITMAP
C0C0
C0C0
C0C0
C0C0
C0C0
C0C0
C0C0
C0C0
C0C0
C0C0
C0C0
C0C0
C0C0
C0C0
C0C0
E180
7F80
3F00
ENDCHAR

STARTCHAR char86
ENCODING 86
SWIDTH 10 0
DWIDTH 13 0
BBX 13 18 -1 0
BITMAP
E018
6038
6030
7030
3030
3060
3060
3860
18E0
18C0
18C0
1CC0
0D80
0D80
0D80
0780
0700
0700
ENDCHAR

STARTCHAR char87
ENCODING 87
SWIDTH 31 0
DWIDTH 19 0
BBX 18 18 -1 0
BITMAP
C0E0C0
C0E0C0
60E0C0
61E0C0
61E1C0
61B180
61B180
313180
333180
333B00
331B00
331B00
1A1B00
1E1B00
1E0A00
1E0E00
1E0E00
0C0E00
ENDCHAR

STARTCHAR char88
ENCODING 88
SWIDTH 10 0
DWIDTH 13 0
BBX 13 18 -1 0
BITMAP
6030
7030
3060
38E0
18C0
0DC0
0D80
0780
0700
0700
0F80
0D80
1DC0
18C0
3860
7060
6030
6030
ENDCHAR

STARTCHAR char89
ENCODING 89
SWIDTH 6 0
DWIDTH 12 0
BBX 12 18 -1 0
BITMAP
6030
6070
3060
3060
30C0
18C0
1980
0D80
0F00
0F00
0600
0600
0600
0600
0600
0600
0600
0600
ENDCHAR

STARTCHAR char90
ENCODING 90
SWIDTH 6 0
DWIDTH 12 0
BBX 11 18 0 0
BITMAP
FFC0
FFC0
00C0
0180
0380
0300
0700
0600
0E00
0C00
1800
3800
3000
7000
6000
C000
FFE0
FFE0
ENDCHAR

STARTCHAR char91
ENCODING 91
SWIDTH 21 0
DWIDTH 6 0
BBX 4 23 2 -4
BITMAP
F0
F0
C0
C0
C0
C0
C0
C0
C0
C0
C0
C0
C0
C0
C0
C0
C0
C0
C0
C0
C0
F0
F0
ENDCHAR

STARTCHAR char92
ENCODING 92
SWIDTH 25 0
DWIDTH 7 0
BBX 7 18 0 0
BITMAP
C0
C0
40
40
60
60
20
30
30
10
18
18
08
0C
0C
04
06
06
ENDCHAR

STARTCHAR char93
ENCODING 93
SWIDTH 21 0
DWIDTH 6 0
BBX 4 23 0 -4
BITMAP
F0
F0
30
30
30
30
30
30
30
30
30
30
30
30
30
30
30
30
30
30
30
F0
F0
ENDCHAR

STARTCHAR char94
ENCODING 94
SWIDTH 0 0
DWIDTH 0 0
BBX 8 2 -4 20
BITMAP
3C
66
ENDCHAR

STARTCHAR char95
ENCODING 95
SWIDTH 17 0
DWIDTH 15 0
BBX 14 2 0 -3
BITMAP
FFFC
FFFC
ENDCHAR

STARTCHAR char96
ENCODING 96
SWIDTH 0 0
DWIDTH 0 0
BBX 4 3 -3 15
BITMAP
E0
60
30
ENDCHAR

STARTCHAR char97
ENCODING 97
SWIDTH 3 0
DWIDTH 11 0
BBX 10 13 0 0
BITMAP
3E00
7F80
4180
0180
0180
0780
3D80
6180
C180
C180
C380
7FC0
3DC0
ENDCHAR

STARTCHAR char98
ENCODING 98
SWIDTH 3 0
DWIDTH 11 0
BBX 9 18 1 0
BITMAP
C000
C000
C000
C000
C000
DE00
FF00
C300
C180
C180
C180
C180
C180
C180
C180
E300
FF00
DE00
ENDCHAR

STARTCHAR char99
ENCODING 99
SWIDTH 35 0
DWIDTH 10 0
BBX 9 13 0 0
BITMAP
1E00
7F00
6180
E180
C000
C000
C000
C000
C180
E180
6180
7F00
3E00
ENDCHAR

STARTCHAR char100
ENCODING 100
SWIDTH 3 0
DWIDTH 11 0
BBX 9 18 0 0
BITMAP
0180
0180
0180
0180
0180
1D80
7F80
6180
E180
C180
C180
C180
C180
C180
C180
6180
7F80
3D80
ENDCHAR

STARTCHAR char101
ENCODING 101
SWIDTH 35 0
DWIDTH 10 0
BBX 9 13 0 0
BITMAP
3E00
7F00
6180
E180
C180
FF80
FF80
C000
C000
C180
6180
7F00
3E00
ENDCHAR

STARTCHAR char102
ENCODING 102
SWIDTH 21 0
DWIDTH 6 0
BBX 6 18 0 0
BITMAP
0C
1C
30
30
30
FC
F0
30
30
30
30
30
30
30
30
30
30
30
ENDCHAR

STARTCHAR char103
ENCODING 103
SWIDTH 3 0
DWIDTH 11 0
BBX 9 17 0 -4
BITMAP
1D80
7F80
6380
C180
C180
C180
C180
C180
C180
C180
6180
7F80
3D80
0180
E180
7F00
3E00
ENDCHAR

STARTCHAR char104
ENCODING 104
SWIDTH 3 0
DWIDTH 11 0
BBX 8 18 1 0
BITMAP
C0
C0
C0
C0
C0
DE
FF
C3
C3
C3
C3
C3
C3
C3
C3
C3
C3
C3
ENDCHAR

STARTCHAR char105
ENCODING 105
SWIDTH 17 0
DWIDTH 5 0
BBX 2 17 1 0
BITMAP
C0
C0
00
00
C0
C0
C0
C0
C0
C0
C0
C0
C0
C0
C0
C0
C0
ENDCHAR

STARTCHAR char106
ENCODING 106
SWIDTH 17 0
DWIDTH 5 0
BBX 4 21 -1 -4
BITMAP
30
30
00
00
30
30
30
30
30
30
30
30
30
30
30
30
30
30
30
F0
E0
ENDCHAR

STARTCHAR char107
ENCODING 107
SWIDTH 3 0
DWIDTH 11 0
BBX 10 18 1 0
BITMAP
C000
C000
C000
C000
C000
C180
C300
C600
CC00
D800
F800
FC00
EC00
C600
C700
C300
C180
C180
ENDCHAR

STARTCHAR char108
ENCODING 108
SWIDTH 17 0
DWIDTH 5 0
BBX 2 18 1 0
BITMAP
C0
C0
C0
C0
C0
C0
C0
C0
C0
C0
C0
C0
C0
C0
C0
C0
C0
C0
ENDCHAR

STARTCHAR char109
ENCODING 109
SWIDTH 28 0
DWIDTH 18 0
BBX 14 13 1 0
BITMAP
DE78
FFDC
C30C
C30C
C30C
C30C
C30C
C30C
C30C
C30C
C30C
C30C
C30C
ENDCHAR

STARTCHAR char110
ENCODING 110
SWIDTH 3 0
DWIDTH 11 0
BBX 8 13 1 0
BITMAP
DE
FF
C3
C3
C3
C3
C3
C3
C3
C3
C3
C3
C3
ENDCHAR

STARTCHAR char111
ENCODING 111
SWIDTH 3 0
DWIDTH 11 0
BBX 9 13 0 0
BITMAP
1E00
7F00
6100
C180
C180
C180
C180
C180
C180
C180
6100
7700
3E00
ENDCHAR

STARTCHAR char112
ENCODING 112
SWIDTH 3 0
DWIDTH 11 0
BBX 9 17 1 -4
BITMAP
DE00
FF00
E300
C180
C180
C180
C180
C180
C180
C180
E300
FF00
DE00
C000
C000
C000
C000
ENDCHAR

STARTCHAR char113
ENCODING 113
SWIDTH 3 0
DWIDTH 11 0
BBX 9 17 0 -4
BITMAP
3D80
7F80
6180
E180
C180
C180
C180
C180
C180
E180
6180
7F80
3D80
0180
0180
0180
0180
ENDCHAR

STARTCHAR char114
ENCODING 114
SWIDTH 25 0
DWIDTH 7 0
BBX 6 13 1 0
BITMAP
DC
FC
E0
C0
C0
C0
C0
C0
C0
C0
C0
C0
C0
ENDCHAR

STARTCHAR char115
ENCODING 115
SWIDTH 35 0
DWIDTH 10 0
BBX 8 13 0 0
BITMAP
3C
7E
C3
C0
60
78
1E
07
03
C3
C3
7E
3C
ENDCHAR

STARTCHAR char116
ENCODING 116
SWIDTH 21 0
DWIDTH 6 0
BBX 6 17 0 0
BITMAP
30
30
30
30
FC
FC
30
30
30
30
30
30
30
30
30
38
38
ENDCHAR

STARTCHAR char117
ENCODING 117
SWIDTH 3 0
DWIDTH 11 0
BBX 8 13 1 0
BITMAP
C3
C3
C3
C3
C3
C3
C3
C3
C3
C3
C7
7F
3B
ENDCHAR

STARTCHAR char118
ENCODING 118
SWIDTH 35 0
DWIDTH 10 0
BBX 10 13 0 0
BITMAP
C0C0
C180
C180
6180
6300
6300
3300
3200
3600
1600
1C00
1C00
1C00
ENDCHAR

STARTCHAR char119
ENCODING 119
SWIDTH 17 0
DWIDTH 15 0
BBX 15 13 -1 0
BITMAP
C186
6386
6386
62C6
62CC
32CC
364C
3648
3658
1478
1C78
1C30
1C30
ENDCHAR

STARTCHAR char120
ENCODING 120
SWIDTH 3 0
DWIDTH 11 0
BBX 10 13 0 0
BITMAP
C1C0
6180
7300
3700
1E00
1C00
0C00
1E00
3600
3300
6380
E180
C1C0
ENDCHAR

STARTCHAR char121
ENCODING 121
SWIDTH 3 0
DWIDTH 11 0
BBX 10 17 0 -4
BITMAP
C0C0
C0C0
C180
6180
6100
6300
3300
3300
3600
1600
1E00
1C00
0C00
0C00
1800
F800
7000
ENDCHAR

STARTCHAR char122
ENCODING 122
SWIDTH 32 0
DWIDTH 9 0
BBX 8 13 0 0
BITMAP
7F
7F
06
06
0C
1C
18
30
30
60
C0
FF
FF
ENDCHAR

STARTCHAR char123
ENCODING 123
SWIDTH 32 0
DWIDTH 9 0
BBX 6 23 1 -5
BITMAP
1C
3C
30
30
30
30
30
30
30
30
60
C0
60
30
30
30
30
30
30
30
30
3C
1C
ENDCHAR

STARTCHAR char124
ENCODING 124
SWIDTH 25 0
DWIDTH 7 0
BBX 2 18 2 0
BITMAP
C0
C0
C0
C0
C0
C0
C0
C0
C0
C0
C0
C0
C0
C0
C0
C0
C0
C0
ENDCHAR

STARTCHAR char125
ENCODING 125
SWIDTH 32 0
DWIDTH 9 0
BBX 6 23 1 -5
BITMAP
E0
F0
30
30
30
30
30
30
30
38
1C
0C
18
38
30
30
30
30
30
30
30
F0
E0
ENDCHAR

STARTCHAR char126
ENCODING 126
SWIDTH 0 0
DWIDTH 0 0
BBX 8 3 -4 19
BITMAP
71
FF
86
ENDCHAR

STARTCHAR char128
ENCODING 128
SWIDTH 10 0
DWIDTH 13 0
BBX 14 18 -2 0
BITMAP
03E0
07F0
0E18
0C18
1C1C
180C
7E00
1FE0
FC00
1FE0
1800
1800
180C
1C0C
0C18
0C18
0770
03E0
ENDCHAR

STARTCHAR char130
ENCODING 130
SWIDTH 14 0
DWIDTH 4 0
BBX 2 6 1 -4
BITMAP
C0
C0
40
40
80
80
ENDCHAR

STARTCHAR char131
ENCODING 131
SWIDTH 0 0
DWIDTH 0 0
BBX 8 2 -4 20
BITMAP
3C
66
ENDCHAR

STARTCHAR char132
ENCODING 132
SWIDTH 32 0
DWIDTH 9 0
BBX 7 6 1 -4
BITMAP
EE
EE
66
66
CC
88
ENDCHAR

STARTCHAR char133
ENCODING 133
SWIDTH 24 0
DWIDTH 27 0
BBX 19 3 3 0
BITMAP
C0C060
C0C060
C0C060
ENDCHAR

STARTCHAR char134
ENCODING 134
SWIDTH 3 0
DWIDTH 11 0
BBX 10 22 0 -4
BITMAP
0C00
0C00
0C00
0C00
0C00
FFC0
FFC0
0C00
0C00
0C00
0C00
0C00
0C00
0C00
0C00
0C00
0C00
0C00
0C00
0C00
0C00
0C00
ENDCHAR

STARTCHAR char135
ENCODING 135
SWIDTH 16 0
DWIDTH 25 0
BBX 0 0 0 0
BITMAP
ENDCHAR

STARTCHAR char136
ENCODING 136
SWIDTH 0 0
DWIDTH 0 0
BBX 7 4 -3 14
BITMAP
30
78
CC
CC
ENDCHAR

STARTCHAR char137
ENCODING 137
SWIDTH 16 0
DWIDTH 25 0
BBX 0 0 0 0
BITMAP
ENDCHAR

STARTCHAR char139
ENCODING 139
SWIDTH 32 0
DWIDTH 9 0
BBX 4 8 2 3
BITMAP
10
30
70
C0
C0
60
30
10
ENDCHAR

STARTCHAR char140
ENCODING 140
SWIDTH 35 0
DWIDTH 20 0
BBX 18 18 0 0
BITMAP
1E7FC0
3F7FC0
71E000
60E000
606000
C06000
C06000
C06000
C07F80
C07F80
C06000
C06000
C06000
C06000
60E000
61E000
3FFFC0
1E7FC0
ENDCHAR

STARTCHAR char142
ENCODING 142
SWIDTH 16 0
DWIDTH 25 0
BBX 0 0 0 0
BITMAP
ENDCHAR

STARTCHAR char144
ENCODING 144
SWIDTH 16 0
DWIDTH 25 0
BBX 0 0 0 0
BITMAP
ENDCHAR

STARTCHAR char145
ENCODING 145
SWIDTH 17 0
DWIDTH 5 0
BBX 2 6 1 12
BITMAP
40
40
80
80
C0
C0
ENDCHAR

STARTCHAR char146
ENCODING 146
SWIDTH 17 0
DWIDTH 5 0
BBX 2 6 1 11
BITMAP
C0
C0
40
40
80
80
ENDCHAR

STARTCHAR char147
ENCODING 147
SWIDTH 32 0
DWIDTH 9 0
BBX 6 6 1 12
BITMAP
44
44
88
88
CC
CC
ENDCHAR

STARTCHAR char148
ENCODING 148
SWIDTH 32 0
DWIDTH 9 0
BBX 6 7 1 11
BITMAP
C0
CC
CC
44
44
88
88
ENDCHAR

STARTCHAR char149
ENCODING 149
SWIDTH 32 0
DWIDTH 9 0
BBX 7 6 1 6
BITMAP
38
7C
FE
FE
FE
38
ENDCHAR

STARTCHAR char150
ENCODING 150
SWIDTH 6 0
DWIDTH 12 0
BBX 10 2 0 6
BITMAP
FFC0
FFC0
ENDCHAR

STARTCHAR char151
ENCODING 151
SWIDTH 10 0
DWIDTH 13 0
BBX 13 2 -1 6
BITMAP
FFF8
FFF8
ENDCHAR

STARTCHAR char152
ENCODING 152
SWIDTH 0 0
DWIDTH 0 0
BBX 8 2 -4 15
BITMAP
33
FF
ENDCHAR

STARTCHAR char153
ENCODING 153
SWIDTH 2 0
DWIDTH 21 0
BBX 21 9 -1 7
BITMAP
FFB030
99B050
183870
1828B0
182CB0
182530
182730
182230
3C7278
ENDCHAR

STARTCHAR char154
ENCODING 154
SWIDTH 16 0
DWIDTH 25 0
BBX 0 0 0 0
BITMAP
ENDCHAR

STARTCHAR char155
ENCODING 155
SWIDTH 32 0
DWIDTH 9 0
BBX 4 8 2 3
BITMAP
80
C0
70
30
30
70
C0
80
ENDCHAR

STARTCHAR char156
ENCODING 156
SWIDTH 24 0
DWIDTH 17 0
BBX 15 13 0 0
BITMAP
3E38
7FFC
638C
C186
C186
C1FE
C1BE
C180
C180
C186
E38C
7FFC
3E78
ENDCHAR

STARTCHAR char159
ENCODING 159
SWIDTH 6 0
DWIDTH 12 0
BBX 12 22 -1 0
BITMAP
1980
1980
0000
0000
E030
6030
7060
3060
30C0
18C0
1980
0D80
0F00
0F00
0600
0600
0600
0600
0600
0600
0600
0600
ENDCHAR

STARTCHAR char160
ENCODING 160
SWIDTH 21 0
DWIDTH 6 0
BBX 0 0 0 0
BITMAP
ENDCHAR

STARTCHAR char161
ENCODING 161
SWIDTH 21 0
DWIDTH 6 0
BBX 2 18 1 0
BITMAP
C0
C0
00
00
00
80
C0
C0
C0
C0
C0
C0
C0
C0
C0
C0
C0
C0
ENDCHAR

STARTCHAR char162
ENCODING 162
SWIDTH 35 0
DWIDTH 10 0
BBX 9 18 0 -3
BITMAP
0C00
0C00
3F00
7F00
6D80
ED80
CC00
CC00
CC00
CC00
CD80
E980
6980
7B00
3E00
0C00
0C00
0C00
ENDCHAR

STARTCHAR char163
ENCODING 163
SWIDTH 6 0
DWIDTH 12 0
BBX 10 18 1 0
BITMAP
1E00
7F80
6180
C0C0
C0C0
C080
C000
6000
FE00
FE00
3000
3000
3000
3000
6000
E000
FFC0
C380
ENDCHAR

STARTCHAR char164
ENCODING 164
SWIDTH 0 0
DWIDTH 0 0
BBX 5 2 -1 20
BITMAP
70
E0
ENDCHAR

STARTCHAR char165
ENCODING 165
SWIDTH 0 0
DWIDTH 0 0
BBX 8 2 -4 20
BITMAP
66
7C
ENDCHAR

STARTCHAR char166
ENCODING 166
SWIDTH 16 0
DWIDTH 25 0
BBX 0 0 0 0
BITMAP
ENDCHAR

STARTCHAR char167
ENCODING 167
SWIDTH 6 0
DWIDTH 12 0
BBX 10 22 0 -4
BITMAP
1F00
3F80
6180
61C0
7000
3000
1C00
3F00
6380
C1C0
C0C0
6040
7040
3CC0
0F80
0380
01C0
00C0
60C0
61C0
3F80
1F00
ENDCHAR

STARTCHAR char168
ENCODING 168
SWIDTH 0 0
DWIDTH 0 0
BBX 6 2 -3 16
BITMAP
CC
CC
ENDCHAR

STARTCHAR char169
ENCODING 169
SWIDTH 31 0
DWIDTH 19 0
BBX 17 17 0 0
BITMAP
03E000
07F800
180C00
300600
21F300
43F100
C41180
CC1180
CC0180
CC0180
CC0180
C40180
47D100
21E300
300600
1FFC00
07F000
ENDCHAR

STARTCHAR char170
ENCODING 170
SWIDTH 0 0
DWIDTH 0 0
BBX 6 2 -3 20
BITMAP
CC
CC
ENDCHAR

STARTCHAR char171
ENCODING 171
SWIDTH 35 0
DWIDTH 10 0
BBX 8 10 0 2
BITMAP
10
11
33
67
C6
C4
66
33
11
11
ENDCHAR

STARTCHAR char172
ENCODING 172
SWIDTH 24 0
DWIDTH 17 0
BBX 16 7 0 0
BITMAP
FFFF
FFFF
0003
0003
0003
0003
0003
ENDCHAR

STARTCHAR char173
ENCODING 173
SWIDTH 16 0
DWIDTH 25 0
BBX 0 0 0 0
BITMAP
ENDCHAR

STARTCHAR char174
ENCODING 174
SWIDTH 31 0
DWIDTH 19 0
BBX 17 18 0 -1
BITMAP
03E000
07F000
1C0C00
300600
27E300
433100
C33180
C33180
C3C180
C3E180
C36180
C37180
433900
673B00
300200
180C00
0FF800
03E000
ENDCHAR

STARTCHAR char175
ENCODING 175
SWIDTH 16 0
DWIDTH 25 0
BBX 0 0 0 0
BITMAP
ENDCHAR

STARTCHAR char176
ENCODING 176
SWIDTH 21 0
DWIDTH 6 0
BBX 8 8 -1 9
BITMAP
1C
3E
43
C3
C3
43
3E
1C
ENDCHAR

STARTCHAR char177
ENCODING 177
SWIDTH 10 0
DWIDTH 13 0
BBX 12 16 0 0
BITMAP
0600
0600
0600
0600
0600
0600
FFF0
FFF0
0600
0600
0600
0600
0600
0000
FFF0
FFF0
ENDCHAR

STARTCHAR char178
ENCODING 178
SWIDTH 16 0
DWIDTH 25 0
BBX 0 0 0 0
BITMAP
ENDCHAR

STARTCHAR char179
ENCODING 179
SWIDTH 16 0
DWIDTH 25 0
BBX 0 0 0 0
BITMAP
ENDCHAR

STARTCHAR char180
ENCODING 180
SWIDTH 0 0
DWIDTH 0 0
BBX 5 4 -1 14
BITMAP
78
60
E0
C0
ENDCHAR

STARTCHAR char181
ENCODING 181
SWIDTH 16 0
DWIDTH 25 0
BBX 0 0 0 0
BITMAP
ENDCHAR

STARTCHAR char182
ENCODING 182
SWIDTH 28 0
DWIDTH 18 0
BBX 11 22 2 -4
BITMAP
1FE0
3FE0
7C60
FC60
FC60
FC60
FC60
7C60
7C60
3C60
0C60
0C60
0C60
0C60
0C60
0C60
0C60
0C60
0C60
0C60
0C60
0C60
ENDCHAR

STARTCHAR char183
ENCODING 183
SWIDTH 14 0
DWIDTH 4 0
BBX 3 3 1 6
BITMAP
E0
E0
E0
ENDCHAR

STARTCHAR char184
ENCODING 184
SWIDTH 0 0
DWIDTH 0 0
BBX 2 4 -1 -5
BITMAP
C0
C0
40
80
ENDCHAR

STARTCHAR char186
ENCODING 186
SWIDTH 0 0
DWIDTH 0 0
BBX 8 3 -4 19
BITMAP
71
FF
86
ENDCHAR

STARTCHAR char187
ENCODING 187
SWIDTH 35 0
DWIDTH 10 0
BBX 7 10 1 2
BITMAP
88
88
CC
E6
62
62
E6
CC
88
88
ENDCHAR

STARTCHAR char188
ENCODING 188
SWIDTH 16 0
DWIDTH 25 0
BBX 0 0 0 0
BITMAP
ENDCHAR

STARTCHAR char191
ENCODING 191
SWIDTH 3 0
DWIDTH 11 0
BBX 9 18 0 0
BITMAP
0C00
0C00
0000
0000
0000
0C00
0C00
1C00
1800
3000
6000
E000
C000
C180
C180
E380
7F00
3E00
ENDCHAR

STARTCHAR char192
ENCODING 192
SWIDTH 10 0
DWIDTH 13 0
BBX 13 22 -1 0
BITMAP
1C00
0600
0000
0000
0300
0780
0780
0580
0C80
0CC0
0CC0
18C0
1860
1860
3860
3FF0
3FF0
3030
7030
6038
6018
E018
ENDCHAR

STARTCHAR char193
ENCODING 193
SWIDTH 10 0
DWIDTH 13 0
BBX 13 22 -1 0
BITMAP
01C0
0300
0000
0000
0300
0780
0780
0580
0C80
0CC0
0CC0
18C0
1860
1860
3860
3FF0
3FF0
3030
7030
6038
6018
E018
ENDCHAR

STARTCHAR char194
ENCODING 194
SWIDTH 10 0
DWIDTH 13 0
BBX 13 22 -1 0
BITMAP
0F80
19C0
0000
0000
0300
0780
0780
0580
0C80
0CC0
0CC0
18C0
1860
1860
3860
3FF0
3FF0
3030
7030
6038
6018
E018
ENDCHAR

STARTCHAR char195
ENCODING 195
SWIDTH 10 0
DWIDTH 13 0
BBX 13 22 -1 0
BITMAP
1E60
1FC0
3080
0000
0300
0780
0780
0580
0C80
0CC0
0CC0
18C0
1860
1860
3860
3FF0
3FF0
3030
7030
6038
6018
E018
ENDCHAR

STARTCHAR char196
ENCODING 196
SWIDTH 10 0
DWIDTH 13 0
BBX 13 22 -1 0
BITMAP
0CC0
0CC0
0000
0000
0300
0700
0780
0580
0C80
0CC0
0CC0
18C0
1860
1860
1860
3FE0
3FF0
3030
7030
6038
6018
E018
ENDCHAR

STARTCHAR char197
ENCODING 197
SWIDTH 10 0
DWIDTH 13 0
BBX 13 23 -1 0
BITMAP
0380
07C0
06C0
07C0
0380
0300
0380
0380
0580
0480
04C0
0CC0
08C0
0860
1860
1860
3FF0
3FF0
3030
7030
6038
6018
E018
ENDCHAR

STARTCHAR char198
ENCODING 198
SWIDTH 35 0
DWIDTH 20 0
BBX 19 18 -1 0
BITMAP
01FFE0
03FFE0
036000
066000
066000
066000
0C6000
0C6000
0C7FE0
187FE0
186000
3FE000
3FE000
306000
706000
606000
E07FE0
C07FE0
ENDCHAR

STARTCHAR char199
ENCODING 199
SWIDTH 10 0
DWIDTH 13 0
BBX 11 23 0 -5
BITMAP
1F00
3FC0
70C0
6060
E060
E060
C000
C000
C000
C000
C000
C000
E060
E060
6060
70C0
3FC0
1F00
0000
0C00
0C00
0400
0800
ENDCHAR

STARTCHAR char200
ENCODING 200
SWIDTH 6 0
DWIDTH 12 0
BBX 10 22 1 0
BITMAP
7000
1800
0000
0000
FFC0
FFC0
C000
C000
C000
C000
C000
C000
FF80
FF80
C000
C000
C000
C000
C000
C000
FFC0
FFC0
ENDCHAR

STARTCHAR char201
ENCODING 201
SWIDTH 6 0
DWIDTH 12 0
BBX 10 22 1 0
BITMAP
0E00
1C00
0000
0000
FF80
FF80
C000
C000
C000
C000
C000
C000
FF80
FF80
C000
C000
C000
C000
C000
C000
FFC0
FFC0
ENDCHAR

STARTCHAR char202
ENCODING 202
SWIDTH 6 0
DWIDTH 12 0
BBX 10 22 1 0
BITMAP
3C00
6600
0000
0000
FF80
FF80
C000
C000
C000
C000
C000
C000
FF80
FF80
C000
C000
C000
C000
C000
C000
FFC0
FFC0
ENDCHAR

STARTCHAR char203
ENCODING 203
SWIDTH 6 0
DWIDTH 12 0
BBX 10 22 1 0
BITMAP
6600
6600
0000
0000
FF80
FF80
C000
C000
C000
C000
C000
C000
FF80
FF80
C000
C000
C000
C000
C000
C000
FFC0
FFC0
ENDCHAR

STARTCHAR char204
ENCODING 204
SWIDTH 17 0
DWIDTH 5 0
BBX 6 22 -3 0
BITMAP
38
18
00
00
0C
0C
0C
0C
0C
0C
0C
0C
0C
0C
0C
0C
0C
0C
0C
0C
0C
0C
ENDCHAR

STARTCHAR char205
ENCODING 205
SWIDTH 17 0
DWIDTH 5 0
BBX 6 22 1 0
BITMAP
70
60
00
00
C0
C0
C0
C0
C0
C0
C0
C0
C0
C0
C0
C0
C0
C0
C0
C0
C0
C0
ENDCHAR

STARTCHAR char206
ENCODING 206
SWIDTH 17 0
DWIDTH 5 0
BBX 8 22 -2 0
BITMAP
3C
66
00
00
18
18
18
18
18
18
18
18
18
18
18
18
18
18
18
18
18
18
ENDCHAR

STARTCHAR char207
ENCODING 207
SWIDTH 17 0
DWIDTH 5 0
BBX 6 22 -1 0
BITMAP
CC
CC
00
00
30
30
30
30
30
30
30
30
30
30
30
30
30
30
30
30
30
30
ENDCHAR

STARTCHAR char208
ENCODING 208
SWIDTH 16 0
DWIDTH 25 0
BBX 0 0 0 0
BITMAP
ENDCHAR

STARTCHAR char209
ENCODING 209
SWIDTH 10 0
DWIDTH 13 0
BBX 10 22 1 0
BITMAP
3980
7F00
4200
0000
C0C0
E0C0
E0C0
F0C0
F0C0
D0C0
D8C0
C8C0
C8C0
CCC0
C4C0
C6C0
C6C0
C2C0
C3C0
C3C0
C1C0
C1C0
ENDCHAR

STARTCHAR char210
ENCODING 210
SWIDTH 10 0
DWIDTH 13 0
BBX 11 22 0 0
BITMAP
3800
0C00
0000
0000
1F00
3F80
70C0
6040
E060
C060
C060
C060
C060
C060
C060
C060
C060
E060
6040
70C0
3F80
1F00
ENDCHAR

STARTCHAR char211
ENCODING 211
SWIDTH 10 0
DWIDTH 13 0
BBX 11 22 0 0
BITMAP
0380
0600
0000
0000
1F00
3F80
70C0
6040
E060
C060
C060
C060
C060
C060
C060
C060
C060
E060
6040
70C0
3F80
1F00
ENDCHAR

STARTCHAR char212
ENCODING 212
SWIDTH 10 0
DWIDTH 13 0
BBX 11 22 0 0
BITMAP
1F00
3980
0000
0000
1F00
3F80
70C0
6040
E060
C060
C060
C060
C060
C060
C060
C060
C060
E060
6040
70C0
3F80
1F00
ENDCHAR

STARTCHAR char213
ENCODING 213
SWIDTH 10 0
DWIDTH 13 0
BBX 11 22 0 0
BITMAP
3C80
7F80
6100
0000
1F00
3F80
70C0
6040
E060
C060
C060
C060
C060
C060
C060
C060
C060
E060
6040
70C0
3F80
1F00
ENDCHAR

STARTCHAR char214
ENCODING 214
SWIDTH 10 0
DWIDTH 13 0
BBX 11 22 0 0
BITMAP
1980
1980
0000
0000
1F00
3F80
70C0
60C0
E060
C060
C060
C060
C060
C060
C060
C060
C060
E060
6040
60C0
3B80
1F00
ENDCHAR

STARTCHAR char215
ENCODING 215
SWIDTH 16 0
DWIDTH 25 0
BBX 0 0 0 0
BITMAP
ENDCHAR

STARTCHAR char216
ENCODING 216
SWIDTH 10 0
DWIDTH 13 0
BBX 12 18 0 0
BITMAP
0F90
3FD0
70E0
6060
E0F0
E0B0
E130
C330
C230
C630
C430
C830
F830
F070
6060
70E0
FFC0
9F80
ENDCHAR

STARTCHAR char217
ENCODING 217
SWIDTH 10 0
DWIDTH 13 0
BBX 10 22 1 0
BITMAP
7000
1800
0000
0000
C0C0
C0C0
C0C0
C0C0
C0C0
C0C0
C0C0
C0C0
C0C0
C0C0
C0C0
C0C0
C0C0
C0C0
C0C0
E180
7F80
3F00
ENDCHAR

STARTCHAR char218
ENCODING 218
SWIDTH 10 0
DWIDTH 13 0
BBX 10 22 1 0
BITMAP
0700
0C00
0000
0000
C0C0
C0C0
C0C0
C0C0
C0C0
C0C0
C0C0
C0C0
C0C0
C0C0
C0C0
C0C0
C0C0
C0C0
C0C0
E180
7F80
3F00
ENDCHAR

STARTCHAR char219
ENCODING 219
SWIDTH 10 0
DWIDTH 13 0
BBX 10 22 1 0
BITMAP
3E00
6700
0000
0000
C0C0
C0C0
C0C0
C0C0
C0C0
C0C0
C0C0
C0C0
C0C0
C0C0
C0C0
C0C0
C0C0
C0C0
C0C0
E180
7F80
3F00
ENDCHAR

STARTCHAR char220
ENCODING 220
SWIDTH 10 0
DWIDTH 13 0
BBX 10 22 1 0
BITMAP
3300
3300
0000
0000
C0C0
C0C0
C0C0
C0C0
C0C0
C0C0
C0C0
C0C0
C0C0
C0C0
C0C0
C0C0
C0C0
C0C0
C0C0
E180
7F80
1E00
ENDCHAR

STARTCHAR char221
ENCODING 221
SWIDTH 16 0
DWIDTH 25 0
BBX 0 0 0 0
BITMAP
ENDCHAR

STARTCHAR char223
ENCODING 223
SWIDTH 3 0
DWIDTH 11 0
BBX 9 18 1 0
BITMAP
3C00
7E00
E300
C300
C300
C300
C300
DE00
DE00
C300
C380
C180
C180
C180
C380
C300
DF00
DE00
ENDCHAR

STARTCHAR char224
ENCODING 224
SWIDTH 3 0
DWIDTH 11 0
BBX 10 18 0 0
BITMAP
7000
3800
1800
0800
0000
3E00
7F80
4180
0180
0180
0780
3D80
6180
C180
C180
C380
7FC0
3DC0
ENDCHAR

STARTCHAR char225
ENCODING 225
SWIDTH 3 0
DWIDTH 11 0
BBX 10 18 0 0
BITMAP
0700
0E00
0C00
0800
0000
3E00
7F80
4180
0180
0180
0780
3D80
6180
C180
C180
C380
7FC0
3DC0
ENDCHAR

STARTCHAR char226
ENCODING 226
SWIDTH 3 0
DWIDTH 11 0
BBX 10 18 0 0
BITMAP
1C00
1600
3600
6300
0000
3E00
7F80
4180
0180
0180
0780
3D80
6180
C180
C180
C380
7FC0
3DC0
ENDCHAR

STARTCHAR char227
ENCODING 227
SWIDTH 3 0
DWIDTH 11 0
BBX 10 17 0 0
BITMAP
3980
7F00
0000
0000
3E00
7F80
4180
0180
0180
0780
3D80
6180
C180
C180
C380
7FC0
3DC0
ENDCHAR

STARTCHAR char228
ENCODING 228
SWIDTH 3 0
DWIDTH 11 0
BBX 10 18 0 0
BITMAP
3300
3300
0000
0000
0000
3E00
7F00
6180
C180
0180
0780
3D80
6180
C180
C180
C380
7FC0
3CC0
ENDCHAR

STARTCHAR char229
ENCODING 229
SWIDTH 3 0
DWIDTH 11 0
BBX 10 19 0 0
BITMAP
1C00
3E00
3200
3600
1C00
0000
3E00
7F00
E180
0180
0180
0780
3D80
6180
C180
C180
C380
7F80
3CC0
ENDCHAR

STARTCHAR char230
ENCODING 230
SWIDTH 21 0
DWIDTH 16 0
BBX 14 13 0 0
BITMAP
3CF0
7FF8
C30C
030C
030C
0FEC
7FFC
E300
C300
C30C
C30C
7DF8
38F0
ENDCHAR

STARTCHAR char231
ENCODING 231
SWIDTH 35 0
DWIDTH 10 0
BBX 9 18 0 -5
BITMAP
3E00
7F00
6180
E180
C000
C000
C000
C000
C180
E180
6180
7F00
3E00
0000
1800
1800
0800
1000
ENDCHAR

STARTCHAR char232
ENCODING 232
SWIDTH 35 0
DWIDTH 10 0
BBX 9 18 0 0
BITMAP
7000
3000
1800
0800
0000
3E00
7F00
6180
E180
C180
FF80
FF80
C000
C000
C180
6180
7F00
3E00
ENDCHAR

STARTCHAR char233
ENCODING 233
SWIDTH 35 0
DWIDTH 10 0
BBX 9 18 0 0
BITMAP
0700
0E00
0C00
1800
0000
3E00
7F00
6180
E180
C180
FF80
FF80
C000
C000
C180
6180
7F00
3E00
ENDCHAR

STARTCHAR char234
ENCODING 234
SWIDTH 35 0
DWIDTH 10 0
BBX 9 18 0 0
BITMAP
1800
3C00
7600
6300
0000
3E00
7F00
6180
E180
C180
FF80
FF80
C000
C000
C180
6180
7F00
3E00
ENDCHAR

STARTCHAR char235
ENCODING 235
SWIDTH 35 0
DWIDTH 10 0
BBX 9 18 0 0
BITMAP
6600
6600
0000
0000
0000
3E00
7F00
6380
E180
C180
FF80
FF80
C000
C000
C180
6380
7F00
3E00
ENDCHAR

STARTCHAR char236
ENCODING 236
SWIDTH 17 0
DWIDTH 5 0
BBX 4 18 -1 0
BITMAP
C0
60
60
30
00
30
30
30
30
30
30
30
30
30
30
30
30
30
ENDCHAR

STARTCHAR char237
ENCODING 237
SWIDTH 17 0
DWIDTH 5 0
BBX 5 18 1 0
BITMAP
38
70
60
C0
00
60
60
60
60
60
60
60
60
60
60
60
60
60
ENDCHAR

STARTCHAR char238
ENCODING 238
SWIDTH 17 0
DWIDTH 5 0
BBX 7 18 -1 0
BITMAP
30
78
CC
CC
00
30
30
30
30
30
30
30
30
30
30
30
30
30
ENDCHAR

STARTCHAR char239
ENCODING 239
SWIDTH 17 0
DWIDTH 5 0
BBX 6 18 -1 0
BITMAP
CC
CC
00
00
00
30
30
30
30
30
30
30
30
30
30
30
30
30
ENDCHAR

STARTCHAR char241
ENCODING 241
SWIDTH 3 0
DWIDTH 11 0
BBX 8 17 1 0
BITMAP
73
FE
00
00
DE
FF
C3
C3
C3
C3
C3
C3
C3
C3
C3
C3
C3
ENDCHAR

STARTCHAR char242
ENCODING 242
SWIDTH 3 0
DWIDTH 11 0
BBX 9 18 0 0
BITMAP
7000
3800
1800
0C00
0000
1E00
7F00
6100
C180
C180
C180
C180
C180
C180
C180
6100
7700
3E00
ENDCHAR

STARTCHAR char243
ENCODING 243
SWIDTH 3 0
DWIDTH 11 0
BBX 9 18 0 0
BITMAP
0700
0E00
0C00
0800
0000
1E00
7F00
6100
C180
C180
C180
C180
C180
C180
C180
6100
7700
3E00
ENDCHAR

STARTCHAR char244
ENCODING 244
SWIDTH 3 0
DWIDTH 11 0
BBX 9 18 0 0
BITMAP
1C00
1400
3600
6300
0000
1E00
7F00
6100
C180
C180
C180
C180
C180
C180
C180
6100
7700
3E00
ENDCHAR

STARTCHAR char245
ENCODING 245
SWIDTH 3 0
DWIDTH 11 0
BBX 9 17 0 0
BITMAP
3900
7F00
0000
0000
3E00
7F00
6100
C180
C180
C180
C180
C180
C180
C180
6100
6700
3E00
ENDCHAR

STARTCHAR char246
ENCODING 246
SWIDTH 3 0
DWIDTH 11 0
BBX 9 18 0 0
BITMAP
7300
7300
0000
0000
0000
0E00
3F00
6300
C180
C180
C180
C180
C180
C180
C180
6100
7F00
3E00
ENDCHAR

STARTCHAR char247
ENCODING 247
SWIDTH 10 0
DWIDTH 13 0
BBX 12 9 0 2
BITMAP
0600
0600
0600
0000
FFF0
FFF0
0600
0600
0600
ENDCHAR

STARTCHAR char248
ENCODING 248
SWIDTH 3 0
DWIDTH 11 0
BBX 10 15 0 -1
BITMAP
0080
3CC0
7F00
6100
E380
C380
C580
C980
C980
D180
F180
6300
7F00
9E00
8000
ENDCHAR

STARTCHAR char249
ENCODING 249
SWIDTH 3 0
DWIDTH 11 0
BBX 8 18 1 0
BITMAP
70
30
18
00
00
C3
C3
C3
C3
C3
C3
C3
C3
C3
C3
C7
7F
3B
ENDCHAR

STARTCHAR char250
ENCODING 250
SWIDTH 3 0
DWIDTH 11 0
BBX 8 18 1 0
BITMAP
0E
0C
18
18
00
C3
C3
C3
C3
C3
C3
C3
C3
C3
C3
C7
7F
3B
ENDCHAR

STARTCHAR char251
ENCODING 251
SWIDTH 3 0
DWIDTH 11 0
BBX 8 18 1 0
BITMAP
18
3C
64
46
00
C3
C3
C3
C3
C3
C3
C3
C3
C3
C3
C7
7F
3B
ENDCHAR

STARTCHAR char252
ENCODING 252
SWIDTH 3 0
DWIDTH 11 0
BBX 8 18 1 0
BITMAP
66
66
00
00
00
C3
C3
C3
C3
C3
C3
C3
C3
C3
C3
C7
7F
3B
ENDCHAR

STARTCHAR char255
ENCODING 255
SWIDTH 3 0
DWIDTH 11 0
BBX 10 22 0 -4
BITMAP
6300
6300
0000
0000
0000
C0C0
C080
C180
6180
6100
6100
3300
3300
3200
1600
1E00
1C00
0C00
0C00
1800
F800
7000
ENDCHAR
ENDFONT
